<svg version="1.1" id="Layer_1" xmlns="http://www.w3.org/2000/svg" xmlns:xlink="http://www.w3.org/1999/xlink" x="0px" y="0px"
	 width="100%" viewBox="0 0 145 82" enable-background="new 0 0 145 82" xml:space="preserve">
<path fill="#000000" opacity="1.000000" stroke="none" 
	d="
M1.000000,30.000000 
	C1.000000,20.367018 1.000000,10.734035 1.000000,1.000000 
	C33.020828,1.000000 65.041756,1.000000 97.530045,1.468648 
	C98.034668,10.207361 98.071930,18.477425 98.080841,27.234743 
	C97.692062,33.996174 97.616974,40.304829 96.864624,46.531654 
	C96.410042,50.294044 93.559227,52.322910 89.679489,51.839092 
	C85.759277,51.350220 84.049362,48.669106 84.027954,44.853271 
	C83.996216,39.195797 84.037682,33.537827 83.991028,27.880539 
	C83.893959,16.110092 85.460098,16.943729 72.899887,17.112694 
	C71.305573,17.134142 68.458603,18.460432 68.390923,19.349586 
	C68.208122,21.750994 68.443077,25.580273 69.904808,26.420509 
	C72.959030,28.176149 72.996017,30.378523 72.998573,33.049431 
	C73.003342,38.041473 72.807327,43.045414 73.103256,48.020107 
	C73.234146,50.220474 74.029739,52.541470 75.092819,54.498482 
	C79.701447,62.982388 98.146873,62.573307 103.025604,58.144878 
	C106.897156,54.630665 109.610352,50.547501 109.103378,44.706059 
	C108.587158,38.758041 108.926598,32.735767 108.929993,26.294706 
	C108.979073,17.562269 108.989540,9.281135 109.000000,1.000000 
	C121.241081,1.000000 133.482162,1.000000 146.000000,1.000000 
	C146.000000,8.018397 146.000000,15.040416 145.650406,22.518555 
	C141.903336,21.062473 138.663223,17.969137 135.074661,17.490988 
	C128.210037,16.576328 121.138268,16.963341 114.175644,17.295706 
	C113.066544,17.348650 111.299988,19.865101 111.177307,21.353115 
	C110.782181,26.145267 111.003212,30.989096 111.005936,35.812988 
	C111.010544,43.989285 111.016792,43.974369 119.272881,44.003616 
	C122.764122,44.015984 126.318062,43.740524 129.717667,44.326267 
	C131.246933,44.589760 132.467743,46.643551 133.828506,47.885006 
	C132.647720,49.037876 131.657349,50.722580 130.244858,51.228306 
	C127.636856,52.162060 124.781319,52.404430 121.773819,52.608547 
	C120.531326,52.187553 119.545044,52.025494 118.556335,52.009056 
	C112.004898,51.900127 112.000610,51.910294 111.997887,58.556343 
	C111.994537,66.704231 111.998947,74.852112 112.000000,83.000000 
	C75.111969,83.000000 38.223938,83.000000 1.000000,83.000000 
	C1.000000,71.981384 1.000000,60.959351 1.347246,49.478760 
	C8.828336,60.190712 19.705887,61.933743 31.688385,60.985329 
	C36.536343,60.601612 37.724754,58.815971 36.955376,53.071003 
	C36.369583,48.696911 33.437260,50.454300 30.936319,50.457497 
	C27.840631,50.461452 24.747318,49.940723 21.647642,49.722519 
	C15.764050,49.308346 14.042727,44.901119 13.206217,40.278046 
	C12.362277,35.613911 14.457899,31.522400 18.610418,29.439243 
	C21.461903,28.008768 25.642605,24.476475 27.595522,31.005205 
	C27.738228,31.482281 28.973068,31.759363 29.742338,31.902184 
	C35.654186,32.999752 36.550602,31.791468 37.104877,25.563084 
	C37.748127,18.334963 34.879906,16.658426 27.000891,17.499722 
	C25.694103,17.639254 24.341648,17.967844 23.076052,17.775776 
	C15.180601,16.577557 9.355748,19.492041 5.123969,26.191170 
	C4.158636,27.719345 2.395788,28.743738 1.000000,30.000000 
M39.046089,20.025988 
	C39.077477,32.978718 39.108864,45.931450 39.460320,59.605591 
	C41.147400,60.068665 42.822243,60.869450 44.523869,60.931099 
	C49.507748,61.111671 54.502300,61.004089 59.492657,60.998089 
	C67.601135,60.988338 68.195656,60.192059 66.259850,51.955093 
	C62.315323,51.955093 58.329796,52.254784 54.437908,51.782627 
	C53.179260,51.629932 51.579338,49.614922 51.174664,48.162315 
	C50.519955,45.812191 51.501293,43.962299 54.519882,44.018341 
	C58.343884,44.089333 62.176929,43.855003 65.994949,44.016121 
	C70.041023,44.186863 70.078300,41.610279 69.996742,38.774666 
	C69.916840,35.997063 70.594658,32.822849 66.045998,32.993362 
	C62.392155,33.130329 58.693092,33.280888 55.086033,32.838680 
	C53.665386,32.664516 52.440010,30.897568 51.125713,29.855930 
	C52.369274,28.911505 53.501266,27.432335 54.881775,27.144310 
	C57.116211,26.678123 59.523785,26.851614 61.840424,27.012184 
	C65.751122,27.283239 65.999886,24.913012 66.038460,21.933565 
	C66.078865,18.812628 65.480591,16.847004 61.705235,16.965624 
	C55.556557,17.158812 49.392971,16.895220 43.246124,17.115698 
	C41.856308,17.165550 40.509388,18.411222 39.046089,20.025988 
z"/>
<path fill="#43164E" opacity="1.000000" stroke="none" 
	d="
M122.028915,52.934845 
	C124.781319,52.404430 127.636856,52.162060 130.244858,51.228306 
	C131.657349,50.722580 132.647720,49.037876 133.828506,47.885006 
	C132.467743,46.643551 131.246933,44.589760 129.717667,44.326267 
	C126.318062,43.740524 122.764122,44.015984 119.272881,44.003616 
	C111.016792,43.974369 111.010544,43.989285 111.005936,35.812988 
	C111.003212,30.989096 110.782181,26.145267 111.177307,21.353115 
	C111.299988,19.865101 113.066544,17.348650 114.175644,17.295706 
	C121.138268,16.963341 128.210037,16.576328 135.074661,17.490988 
	C138.663223,17.969137 141.903336,21.062473 145.650406,22.987339 
	C146.000000,33.687561 146.000000,44.375122 145.640015,55.518951 
	C138.771393,61.638668 130.853073,61.114941 122.731964,60.757320 
	C122.293808,57.959450 122.161362,55.447147 122.028915,52.934845 
M122.958176,34.042290 
	C122.958176,34.042290 122.957680,33.956406 123.608215,34.335793 
	C126.047661,34.197819 128.487106,34.059841 131.348251,33.428520 
	C135.714447,31.012445 132.895676,29.073502 130.638199,26.634743 
	C128.078018,26.771027 125.517853,26.907310 122.958176,26.957706 
	C122.958176,26.957706 123.044067,26.958082 122.662880,27.601166 
	C122.789940,29.748083 122.917000,31.895002 122.958176,34.042290 
z"/>
<path fill="#43164F" opacity="1.000000" stroke="none" 
	d="
M1.000000,30.468273 
	C2.395788,28.743738 4.158636,27.719345 5.123969,26.191170 
	C9.355748,19.492041 15.180601,16.577557 23.076052,17.775776 
	C24.341648,17.967844 25.694103,17.639254 27.000891,17.499722 
	C34.879906,16.658426 37.748127,18.334963 37.104877,25.563084 
	C36.550602,31.791468 35.654186,32.999752 29.742338,31.902184 
	C28.973068,31.759363 27.738228,31.482281 27.595522,31.005205 
	C25.642605,24.476475 21.461903,28.008768 18.610418,29.439243 
	C14.457899,31.522400 12.362277,35.613911 13.206217,40.278046 
	C14.042727,44.901119 15.764050,49.308346 21.647642,49.722519 
	C24.747318,49.940723 27.840631,50.461452 30.936319,50.457497 
	C33.437260,50.454300 36.369583,48.696911 36.955376,53.071003 
	C37.724754,58.815971 36.536343,60.601612 31.688385,60.985329 
	C19.705887,61.933743 8.828336,60.190712 1.347246,49.010101 
	C1.000000,42.978848 1.000000,36.957695 1.000000,30.468273 
z"/>
<path fill="#000000" opacity="1.000000" stroke="none" 
	d="
M123.037674,61.042889 
	C130.853073,61.114941 138.771393,61.638668 145.640015,55.987610 
	C146.000000,64.920456 146.000000,73.840919 146.000000,83.000000 
	C138.647537,83.000000 131.292511,83.000000 123.470032,82.531425 
	C123.014282,75.056198 123.025978,68.049545 123.037674,61.042889 
z"/>
<path fill="#BE0086" opacity="1.000000" stroke="none" 
	d="
M122.731964,60.757320 
	C123.025978,68.049545 123.014282,75.056198 123.001297,82.531425 
	C119.638710,83.000000 116.277428,83.000000 112.458069,83.000000 
	C111.998947,74.852112 111.994537,66.704231 111.997887,58.556343 
	C112.000610,51.910294 112.004898,51.900127 118.556335,52.009056 
	C119.545044,52.025494 120.531326,52.187553 121.773819,52.608551 
	C122.161362,55.447147 122.293808,57.959450 122.731964,60.757320 
z"/>
<path fill="#BE0086" opacity="1.000000" stroke="none" 
	d="
M98.109184,26.747490 
	C98.071930,18.477425 98.034668,10.207361 97.998703,1.468648 
	C101.361290,1.000000 104.722572,1.000000 108.541931,1.000000 
	C108.989540,9.281135 108.979073,17.562269 108.479828,26.285402 
	C104.697098,26.734097 101.403145,26.740793 98.109184,26.747490 
z"/>
<path fill="#42154E" opacity="1.000000" stroke="none" 
	d="
M39.142723,19.106441 
	C40.509388,18.411222 41.856308,17.165550 43.246124,17.115698 
	C49.392971,16.895220 55.556557,17.158812 61.705235,16.965624 
	C65.480591,16.847004 66.078865,18.812628 66.038460,21.933565 
	C65.999886,24.913012 65.751122,27.283239 61.840424,27.012184 
	C59.523785,26.851614 57.116211,26.678123 54.881775,27.144310 
	C53.501266,27.432335 52.369274,28.911505 51.125713,29.855930 
	C52.440010,30.897568 53.665386,32.664516 55.086033,32.838680 
	C58.693092,33.280888 62.392155,33.130329 66.045998,32.993362 
	C70.594658,32.822849 69.916840,35.997063 69.996742,38.774666 
	C70.078300,41.610279 70.041023,44.186863 65.994949,44.016121 
	C62.176929,43.855003 58.343884,44.089333 54.519882,44.018341 
	C51.501293,43.962299 50.519955,45.812191 51.174664,48.162315 
	C51.579338,49.614922 53.179260,51.629932 54.437908,51.782627 
	C58.329796,52.254784 62.315323,51.955093 66.259850,51.955093 
	C68.195656,60.192059 67.601135,60.988338 59.492657,60.998089 
	C54.502300,61.004089 49.507748,61.111671 44.523869,60.931099 
	C42.822243,60.869450 41.147400,60.068665 39.488049,58.887035 
	C39.677402,49.075634 39.943222,39.982895 39.952080,30.889898 
	C39.955906,26.962345 39.428699,23.034277 39.142723,19.106441 
z"/>
<path fill="#42154E" opacity="1.000000" stroke="none" 
	d="
M98.080841,27.234743 
	C101.403145,26.740793 104.697098,26.734097 108.441216,26.736704 
	C108.926598,32.735767 108.587158,38.758041 109.103378,44.706059 
	C109.610352,50.547501 106.897156,54.630665 103.025604,58.144878 
	C98.146873,62.573307 79.701447,62.982388 75.092819,54.498482 
	C74.029739,52.541470 73.234146,50.220474 73.103256,48.020107 
	C72.807327,43.045414 73.003342,38.041473 72.998573,33.049431 
	C72.996017,30.378523 72.959030,28.176149 69.904808,26.420509 
	C68.443077,25.580273 68.208122,21.750994 68.390923,19.349586 
	C68.458603,18.460432 71.305573,17.134142 72.899887,17.112694 
	C85.460098,16.943729 83.893959,16.110092 83.991028,27.880539 
	C84.037682,33.537827 83.996216,39.195797 84.027954,44.853271 
	C84.049362,48.669106 85.759277,51.350220 89.679489,51.839092 
	C93.559227,52.322910 96.410042,50.294044 96.864624,46.531654 
	C97.616974,40.304829 97.692062,33.996174 98.080841,27.234743 
z"/>
<path fill="#633F6D" opacity="1.000000" stroke="none" 
	d="
M39.094406,19.566216 
	C39.428699,23.034277 39.955906,26.962345 39.952080,30.889898 
	C39.943222,39.982895 39.677402,49.075634 39.328018,58.526329 
	C39.108864,45.931450 39.077477,32.978718 39.094406,19.566216 
z"/>
<path fill="#000000" opacity="1.000000" stroke="none" 
	d="
M130.926544,27.078135 
	C132.895676,29.073502 135.714447,31.012445 130.697693,33.702110 
	C127.683975,33.969265 125.320824,33.962837 122.957680,33.956406 
	C122.957680,33.956406 122.958176,34.042290 122.986511,33.599182 
	C123.024582,31.090075 123.034325,29.024078 123.044067,26.958082 
	C123.044067,26.958082 122.958176,26.957706 123.402634,26.986198 
	C126.206902,27.035839 128.566727,27.056986 130.926544,27.078135 
z"/>
<path fill="#633F6D" opacity="1.000000" stroke="none" 
	d="
M130.782379,26.856438 
	C128.566727,27.056986 126.206902,27.035839 123.402382,27.029142 
	C125.517853,26.907310 128.078018,26.771027 130.782379,26.856438 
z"/>
<path fill="#633F6D" opacity="1.000000" stroke="none" 
	d="
M123.282944,34.146099 
	C125.320824,33.962837 127.683975,33.969265 130.486832,33.948780 
	C128.487106,34.059841 126.047661,34.197819 123.282944,34.146099 
z"/>
<path fill="#633F6D" opacity="1.000000" stroke="none" 
	d="
M122.853470,27.279625 
	C123.034325,29.024078 123.024582,31.090075 123.029449,33.598995 
	C122.917000,31.895002 122.789940,29.748083 122.853470,27.279625 
z"/>
</svg>