<svg version="1.1" id="Layer_1" xmlns="http://www.w3.org/2000/svg" xmlns:xlink="http://www.w3.org/1999/xlink" x="0px" y="0px"
	 width="100%" viewBox="0 0 145 82" enable-background="new 0 0 145 82" xml:space="preserve">
<path fill="#000000" opacity="1.000000" stroke="none" 
	d="
M1.000000,32.000000 
	C1.000000,21.702110 1.000000,11.404221 1.000000,1.000000 
	C33.020821,1.000000 65.041756,1.000000 97.531364,1.468652 
	C98.054306,10.293983 98.108566,18.650660 98.087662,27.471897 
	C98.008308,33.598316 98.366585,39.294743 97.831482,44.905968 
	C97.599373,47.339870 96.101349,50.388779 94.180206,51.783352 
	C89.092491,55.476559 83.180214,51.356071 83.039642,44.143723 
	C82.871956,35.540672 83.000122,26.931852 83.000122,18.232536 
	C77.791229,18.232536 73.052010,18.232536 68.227402,18.232536 
	C68.227402,21.214211 68.227402,23.959148 68.227402,26.684042 
	C69.971596,26.955870 71.496056,27.193455 73.000000,27.427841 
	C73.000000,32.995491 72.999603,38.157444 73.000084,43.319397 
	C73.000984,53.034916 77.062157,58.929398 86.460770,60.642879 
	C96.603096,62.491940 109.137306,58.450146 108.999504,43.426193 
	C108.949142,37.934711 108.893089,32.443279 108.909637,26.490948 
	C108.986427,17.686714 108.993217,9.343357 109.000000,1.000000 
	C121.244171,1.000000 133.488342,1.000000 146.000000,1.000000 
	C146.000000,8.685477 146.000000,16.374046 145.711792,24.826416 
	C142.385513,23.098503 139.574844,18.896118 136.264069,18.456024 
	C128.329453,17.401291 120.159752,18.115082 112.000092,18.115082 
	C112.000092,25.689396 112.121185,32.682213 111.945999,39.667599 
	C111.865494,42.877388 112.890015,44.207691 116.221992,44.051945 
	C120.709167,43.842201 125.215118,44.072586 129.709915,43.973598 
	C132.533676,43.911411 135.207291,44.765499 134.744095,47.763386 
	C134.494095,49.381481 131.855011,51.260075 129.938461,51.833447 
	C127.481300,52.568562 124.666618,52.108639 121.560196,52.096695 
	C120.281738,52.019936 119.449051,52.002476 118.616356,52.001480 
	C112.006599,51.993580 112.003448,51.994537 112.000793,58.515450 
	C111.997482,66.676964 112.000000,74.838486 112.000000,83.000000 
	C75.110428,83.000000 38.220852,83.000000 1.000000,83.000000 
	C1.000000,71.314522 1.000000,59.625919 1.294099,47.171799 
	C2.976537,48.354557 4.185074,50.466354 5.783298,52.223766 
	C14.204038,61.483227 24.650642,62.242893 35.789803,59.606678 
	C35.789803,56.200478 35.789803,53.233784 35.789803,50.900105 
	C31.318899,50.900105 26.899416,51.581360 22.808485,50.713634 
	C18.485640,49.796726 14.293097,47.714424 12.983983,42.537872 
	C10.581357,33.037319 18.282490,25.298279 26.533892,27.192532 
	C26.878853,28.455959 27.233921,29.756405 27.500515,30.732809 
	C30.558414,30.732809 33.160175,30.732809 35.999924,30.732809 
	C35.999924,29.494474 36.030895,28.520741 35.994057,27.549578 
	C35.887535,24.741213 36.554104,21.488842 35.332520,19.291910 
	C34.591572,17.959370 30.862545,18.441027 28.563725,17.795135 
	C19.446720,15.233558 4.709862,22.028040 2.889432,31.075716 
	C2.805350,31.493612 1.654183,31.696808 1.000000,32.000000 
M64.231934,18.056084 
	C57.072304,18.037487 49.906029,17.856552 42.759148,18.149261 
	C41.465725,18.202234 39.190083,20.174383 39.164845,21.300774 
	C38.900127,33.117336 38.914059,44.943806 39.145718,56.761757 
	C39.167267,57.861042 41.178947,59.814186 42.320312,59.854633 
	C50.090240,60.129986 57.874577,59.998745 65.783989,59.998745 
	C65.783989,56.827969 65.783989,54.093761 65.783989,50.964775 
	C60.496689,50.964775 55.408958,50.964775 50.210861,50.964775 
	C50.210861,48.496864 50.210861,46.429638 50.210861,43.966393 
	C56.491199,43.966393 62.575569,43.966393 68.783035,43.966393 
	C68.783035,40.495876 68.783035,37.427448 68.783035,33.964600 
	C62.494991,33.964600 56.410110,33.964600 50.210556,33.964600 
	C50.210556,31.496090 50.210556,29.428888 50.210556,26.966763 
	C55.158043,26.966763 59.912914,26.966763 64.934586,26.966763 
	C64.934586,23.953836 64.934586,21.328897 64.231934,18.056084 
z"/>
<path fill="#F5F5F5" opacity="1.000000" stroke="none" 
	d="
M122.005966,52.163616 
	C124.666618,52.108639 127.481300,52.568562 129.938461,51.833447 
	C131.855011,51.260075 134.494095,49.381481 134.744095,47.763386 
	C135.207291,44.765499 132.533676,43.911411 129.709915,43.973598 
	C125.215118,44.072586 120.709167,43.842201 116.221992,44.051945 
	C112.890015,44.207691 111.865494,42.877388 111.945999,39.667599 
	C112.121185,32.682213 112.000092,25.689396 112.000092,18.115082 
	C120.159752,18.115082 128.329453,17.401291 136.264069,18.456024 
	C139.574844,18.896118 142.385513,23.098503 145.711792,25.295107 
	C146.000000,27.700014 146.000000,30.400026 145.709305,33.254631 
	C143.874725,35.312119 142.330841,37.215015 140.831635,39.062832 
	C142.151291,39.812786 144.075638,40.906391 146.000000,42.000000 
	C146.000000,45.692909 146.000000,49.385818 145.705017,53.243435 
	C142.702087,57.578728 138.954788,59.931240 133.896790,60.000874 
	C130.266464,60.050850 126.636284,60.109581 122.652298,59.941437 
	C122.201027,57.200188 122.103500,54.681904 122.005966,52.163616 
M133.845657,32.665913 
	C135.696426,26.856228 132.253281,26.030949 123.310547,27.611591 
	C123.310547,29.716587 123.310547,31.782019 123.310547,34.378197 
	C126.851974,33.961655 130.033737,33.587418 133.845657,32.665913 
z"/>
<path fill="#F5F5F5" opacity="1.000000" stroke="none" 
	d="
M1.000000,32.466118 
	C1.654183,31.696808 2.805350,31.493612 2.889432,31.075716 
	C4.709862,22.028040 19.446720,15.233558 28.563725,17.795135 
	C30.862545,18.441027 34.591572,17.959370 35.332520,19.291910 
	C36.554104,21.488842 35.887535,24.741213 35.994057,27.549578 
	C36.030895,28.520741 35.999924,29.494474 35.999924,30.732809 
	C33.160175,30.732809 30.558414,30.732809 27.500515,30.732809 
	C27.233921,29.756405 26.878853,28.455959 26.533892,27.192532 
	C18.282490,25.298279 10.581357,33.037319 12.983983,42.537872 
	C14.293097,47.714424 18.485640,49.796726 22.808485,50.713634 
	C26.899416,51.581360 31.318899,50.900105 35.789803,50.900105 
	C35.789803,53.233784 35.789803,56.200478 35.789803,59.606678 
	C24.650642,62.242893 14.204038,61.483227 5.783298,52.223766 
	C4.185074,50.466354 2.976537,48.354557 1.294099,46.703140 
	C1.000000,42.310745 1.000000,37.621487 1.000000,32.466118 
z"/>
<path fill="#000000" opacity="1.000000" stroke="none" 
	d="
M123.006035,60.164402 
	C126.636284,60.109581 130.266464,60.050850 133.896790,60.000874 
	C138.954788,59.931240 142.702087,57.578728 145.705017,53.704071 
	C146.000000,63.584553 146.000000,73.169106 146.000000,83.000000 
	C138.647659,83.000000 131.292572,83.000000 123.468735,82.531387 
	C123.002007,74.763313 123.004021,67.463860 123.006035,60.164402 
z"/>
<path fill="#BF0087" opacity="1.000000" stroke="none" 
	d="
M122.652298,59.941437 
	C123.004021,67.463860 123.002007,74.763313 123.000000,82.531387 
	C119.638710,83.000000 116.277428,83.000000 112.458069,83.000000 
	C112.000000,74.838486 111.997482,66.676964 112.000793,58.515450 
	C112.003448,51.994537 112.006599,51.993580 118.616356,52.001480 
	C119.449051,52.002476 120.281738,52.019936 121.560196,52.096695 
	C122.103500,54.681904 122.201027,57.200188 122.652298,59.941437 
z"/>
<path fill="#BF0087" opacity="1.000000" stroke="none" 
	d="
M108.541931,1.000000 
	C108.993217,9.343357 108.986427,17.686714 108.466202,26.502712 
	C104.689445,26.986013 101.426132,26.996675 98.162827,27.007338 
	C98.108566,18.650660 98.054306,10.293983 98.000023,1.468652 
	C101.361290,1.000000 104.722572,1.000000 108.541931,1.000000 
z"/>
<path fill="#000000" opacity="1.000000" stroke="none" 
	d="
M146.000000,41.555832 
	C144.075638,40.906391 142.151291,39.812786 140.831635,39.062832 
	C142.330841,37.215015 143.874725,35.312119 145.709305,33.704613 
	C146.000000,36.370556 146.000000,38.741116 146.000000,41.555832 
z"/>
<path fill="#F5F5F5" opacity="1.000000" stroke="none" 
	d="
M64.583260,18.380020 
	C64.934586,21.328897 64.934586,23.953836 64.934586,26.966763 
	C59.912914,26.966763 55.158043,26.966763 50.210556,26.966763 
	C50.210556,29.428888 50.210556,31.496090 50.210556,33.964600 
	C56.410110,33.964600 62.494991,33.964600 68.783035,33.964600 
	C68.783035,37.427448 68.783035,40.495876 68.783035,43.966393 
	C62.575569,43.966393 56.491199,43.966393 50.210861,43.966393 
	C50.210861,46.429638 50.210861,48.496864 50.210861,50.964775 
	C55.408958,50.964775 60.496689,50.964775 65.783989,50.964775 
	C65.783989,54.093761 65.783989,56.827969 65.783989,59.998745 
	C57.874577,59.998745 50.090240,60.129986 42.320312,59.854633 
	C41.178947,59.814186 39.167267,57.861042 39.145718,56.761757 
	C38.914059,44.943806 38.900127,33.117336 39.164845,21.300774 
	C39.190083,20.174383 41.465725,18.202234 42.759148,18.149261 
	C49.906029,17.856552 57.072304,18.037487 64.583260,18.380020 
z"/>
<path fill="#F5F5F5" opacity="1.000000" stroke="none" 
	d="
M98.087654,27.471897 
	C101.426132,26.996675 104.689445,26.986013 108.396194,26.963589 
	C108.893089,32.443279 108.949142,37.934711 108.999504,43.426193 
	C109.137306,58.450146 96.603096,62.491940 86.460770,60.642879 
	C77.062157,58.929398 73.000984,53.034916 73.000084,43.319397 
	C72.999603,38.157444 73.000000,32.995491 73.000000,27.427841 
	C71.496056,27.193455 69.971596,26.955870 68.227402,26.684042 
	C68.227402,23.959148 68.227402,21.214211 68.227402,18.232536 
	C73.052010,18.232536 77.791229,18.232536 83.000122,18.232536 
	C83.000122,26.931852 82.871956,35.540672 83.039642,44.143723 
	C83.180214,51.356071 89.092491,55.476559 94.180206,51.783352 
	C96.101349,50.388779 97.599373,47.339870 97.831482,44.905968 
	C98.366585,39.294743 98.008308,33.598316 98.087654,27.471897 
z"/>
<path fill="#000000" opacity="1.000000" stroke="none" 
	d="
M133.530579,32.939545 
	C130.033737,33.587418 126.851974,33.961655 123.310547,34.378197 
	C123.310547,31.782019 123.310547,29.716587 123.310547,27.611591 
	C132.253281,26.030949 135.696426,26.856228 133.530579,32.939545 
z"/>
</svg>